# xmcd
#
# Track frame offsets:
#	150
#	17581
#	33221
#	47621
#	66809
#	82334
#	100039
#	117394
#	136036
#	154054
#	171485
#	187125
#	201525
#	220713
#	236238
#	253943
#	271298
#	289940
#
# Disc length: 4106
#
# Revision: 3
# Processed by: cddbd v1.5.2PL0 Copyright (c) Steve Scherf et al.
# Submitted via: kJams Lite (development) 1.0patch50.56
#
DISCID=11100812
DTITLE=Various Artist - Pop Hits Monthly 0304-c
DYEAR=2003
DGENRE=karaoke
TTITLE0=Kenny Chesney - Big Star −
TTITLE1=Phil Vassar - This Is God −
TTITLE2=John Michael Motgomery - Country Thang −
TTITLE3=Tim McGraw - She's My Kind Of Rain
TTITLE4=Randy Travis - Three Wooden Crosses −
TTITLE5=Travis Tritt - Country Ain't Country −
TTITLE6=Toby Keith - Rock You Baby −
TTITLE7=Steve Azar - Waitin' On Joe −
TTITLE8=Andy Griggs - Practice Life −
TTITLE9=Various Artist - Big Star − Kenny Chesney (vocal)
TTITLE10=Various Artist - This Is God − Phil Vassar (vocal)
TTITLE11=Various Artist - Country Thang − John Michael Montgomery (vocal)
TTITLE12=Various Artist - She's My Kind Of RAIN − Tim McGraw (vocal)
TTITLE13=Various Artist - Three Wooden Crosses − Randy Travis (vocal)
TTITLE14=Various Artist - Country Ain't Country − Travis Tritt (vocal)
TTITLE15=Various Artist - Rock You Baby − Toby Keith (vocal)
TTITLE16=Various Artist - Waitin' On Joe − Steve Azar (vocal)
TTITLE17=Various Artist - Practic Life − Andy Griggs (vocal)
EXTD=
EXTT0=
EXTT1=
EXTT2=
EXTT3=
EXTT4=
EXTT5=
EXTT6=
EXTT7=
EXTT8=
EXTT9=
EXTT10=
EXTT11=
EXTT12=
EXTT13=
EXTT14=
EXTT15=
EXTT16=
EXTT17=
PLAYORDER=
